<?xml version="1.0" encoding="UTF-8" standalone="no"?>
<svg
   xmlns:dc="http://purl.org/dc/elements/1.1/"
   xmlns:cc="http://creativecommons.org/ns#"
   xmlns:rdf="http://www.w3.org/1999/02/22-rdf-syntax-ns#"
   xmlns:svg="http://www.w3.org/2000/svg"
   xmlns="http://www.w3.org/2000/svg"
   id="svg54"
   xml:space="preserve"
   viewBox="0 0 920.79254 232.0672"
   height="232.0672"
   width="920.79254"
   version="1.1"><metadata
   id="metadata58"><rdf:RDF><cc:Work
       rdf:about=""><dc:format>image/svg+xml</dc:format><dc:type
         rdf:resource="http://purl.org/dc/dcmitype/StillImage" /></cc:Work></rdf:RDF></metadata>
<desc
   id="desc2">Created with Fabric.js 3.2.0</desc>
<defs
   id="defs4" />
<g
   id="g10"
   transform="matrix(10.16,0,0,10.16,356.61598,108.1088)">
		<g
   id="text8"
   style="font-style:normal;font-weight:normal;font-size:20px;font-family:Archivo;white-space:pre;opacity:1;fill:#e0e0e0;fill-rule:nonzero;stroke:none;stroke-width:1;stroke-linecap:butt;stroke-linejoin:miter;stroke-miterlimit:4;stroke-dasharray:none;stroke-dashoffset:0"
   aria-label="Hub"><path
     id="path60"
     d="m -16.93,6.2800002 v -13.72 h 1.9 v 5.88 h 7.4600004 v -5.88 h 1.92 v 13.72 h -1.92 V 0.10000021 H -15.03 V 6.2800002 Z" /><path
     id="path62"
     d="m 0.71656288,6.5200002 q -1.52,0 -2.43999998,-0.78 -0.92,-0.78 -0.92,-2.72 v -7.26 h 1.75999998 v 7.02 q 0,0.66 0.16,1.08 0.16,0.42 0.46,0.66 0.3,0.24 0.7,0.34 0.42,0.1 0.90000002,0.1 0.76,0 1.4,-0.36 0.64,-0.36 1.04,-1.04 0.42,-0.7 0.42,-1.62 v -6.18 h 1.76 v 10.52 h -1.42 l -0.16,-1.58 h -0.14 q -0.42,0.64 -0.96,1.04 -0.52,0.4 -1.18,0.58 -0.64,0.2 -1.38000002,0.2 z" /><path
     id="path64"
     d="m 13.706563,6.5200002 q -1.06,0 -1.9,-0.42 -0.84,-0.44 -1.38,-1.32 h -0.14 l -0.18,1.5 H 8.7065629 v -14.46 h 1.7600001 v 5.26 h 0.12 q 0.36,-0.56 0.84,-0.9 0.48,-0.34 1.08,-0.5 0.6,-0.16 1.28,-0.16 1.22,0 2.14,0.58 0.92,0.58 1.42,1.78 0.52,1.20000001 0.52,3.06000001 0,1.95999999 -0.5,3.19999999 -0.5,1.22 -1.42,1.8 -0.92,0.58 -2.24,0.58 z m -0.42,-1.54 q 0.9,0 1.5,-0.36 0.62,-0.36 0.94,-1.18 0.32,-0.84 0.32,-2.2 V 0.82000021 q 0,-1.32 -0.3,-2.14000001 -0.3,-0.84 -0.92,-1.22 -0.62,-0.4 -1.6,-0.4 -0.56,0 -1.06,0.18 -0.5,0.18 -0.9,0.62 -0.38,0.44 -0.6,1.18000001 -0.2,0.74 -0.2,1.82 V 1.1800002 q 0,1.24 0.28,2.08 0.3,0.84 0.92,1.28 0.64,0.44 1.62,0.44 z" /></g>
</g>
<g
   id="g16"
   transform="matrix(10.16,0,0,10.16,727.81598,108.1088)">
		<g
   id="text14"
   style="font-style:normal;font-weight:normal;font-size:20px;font-family:Archivo;white-space:pre;opacity:1;fill:#b0bec5;fill-rule:nonzero;stroke:none;stroke-width:1;stroke-linecap:butt;stroke-linejoin:miter;stroke-miterlimit:4;stroke-dasharray:none;stroke-dashoffset:0"
   aria-label="Seq"><path
     id="path67"
     d="m -11.119999,6.5200002 q -1.12,0 -2.16,-0.22 -1.02,-0.22 -1.82,-0.7 -0.8,-0.5 -1.28,-1.28 -0.46,-0.78 -0.46,-1.92 0,-0.1 0,-0.2 0.02,-0.1 0.02,-0.2 h 1.92 q 0,0.06 -0.02,0.2 0,0.12 0,0.22 0,0.8 0.48,1.36 0.48,0.56 1.32,0.84 0.86,0.26 1.94,0.26 0.48,0 1,-0.06 0.5399998,-0.06 1.0199998,-0.2 0.5,-0.16 0.88,-0.4 0.4,-0.26 0.62,-0.62 0.24,-0.38 0.24,-0.92 0,-0.68 -0.4,-1.12 -0.38,-0.46 -1.02,-0.73999999 -0.64,-0.3 -1.4599998,-0.52 -0.8,-0.24 -1.66,-0.46 -0.86,-0.22 -1.68,-0.5 -0.8,-0.3 -1.44,-0.72000001 -0.64,-0.44 -1.04,-1.08 -0.38,-0.64 -0.38,-1.56 0,-0.86 0.34,-1.54 0.36,-0.68 1.04,-1.14 0.7,-0.48 1.72,-0.72 1.02,-0.26 2.34,-0.26 1.0799998,0 1.9999998,0.24 0.94,0.22 1.64,0.7 0.72,0.46 1.12,1.18 0.4,0.72 0.4,1.74 v 0.24 h -1.88 v -0.3 q 0,-0.68 -0.42,-1.16 -0.42,-0.48 -1.16,-0.74 -0.7199998,-0.26 -1.6399998,-0.26 -1.2,0 -2,0.24 -0.8,0.22 -1.2,0.66 -0.38,0.42 -0.38,0.96 0,0.62 0.38,1.04 0.4,0.42 1.04,0.7 0.64,0.26 1.46,0.48 0.82,0.22 1.66,0.46 0.8599998,0.22 1.6599998,0.52000001 0.82,0.28 1.46,0.72 0.66,0.42 1.04,1.08 0.38,0.63999999 0.38,1.57999999 0,1.46 -0.72,2.38 -0.72,0.9 -1.98,1.32 -1.26,0.42 -2.9199998,0.42 z" /><path
     id="path69"
     d="m 1.1765633,6.5200002 q -1.55999996,0 -2.64,-0.58 -1.06,-0.6 -1.62,-1.82 -0.54,-1.22 -0.54,-3.1 0,-1.89999999 0.54,-3.1 0.56,-1.22 1.64,-1.8 1.08000004,-0.6 2.7,-0.6 1.48,0 2.48,0.58 1,0.56 1.5,1.7 0.52,1.12 0.52,2.82000001 V 1.4600002 h -7.56 q 0.04,1.26 0.36,2.08 0.34,0.8 1.00000004,1.18 0.66,0.36 1.65999996,0.36 0.68,0 1.18,-0.16 0.52,-0.18 0.86,-0.5 0.36,-0.32 0.54,-0.76 0.18,-0.44 0.2,-0.96 h 1.72 q -0.02,0.84 -0.32,1.56 -0.3,0.7 -0.88,1.2 -0.58,0.5 -1.42,0.78 -0.84,0.28 -1.92,0.28 z m -2.94,-6.37999999 h 5.7 q 0,-0.88 -0.2,-1.48000001 -0.2,-0.6 -0.58,-0.98 -0.36,-0.38 -0.86,-0.54 -0.48,-0.18 -1.1,-0.18 -0.91999996,0 -1.55999996,0.34 -0.64000004,0.34 -0.98000004,1.04 -0.34,0.70000001 -0.42,1.80000001 z" /><path
     id="path71"
     d="m 14.773126,9.7400002 v -4.78 h -0.12 q -0.36,0.54 -0.86,0.9 -0.48,0.34 -1.08,0.5 -0.6,0.16 -1.26,0.16 -1.22,0 -2.1400002,-0.58 -0.92,-0.58 -1.44,-1.78 -0.52,-1.22 -0.52,-3.06 0,-1.95999999 0.5,-3.18 0.52,-1.24 1.44,-1.82 0.9400002,-0.58 2.2400002,-0.58 1.06,0 1.9,0.44 0.84,0.42 1.38,1.3 h 0.14 l 0.16,-1.5 h 1.42 v 13.98 z m -2.76,-4.76 q 0.58,0 1.08,-0.18 0.5,-0.18 0.86,-0.62 0.38,-0.44 0.6,-1.16 0.22,-0.74 0.22,-1.84 V 0.88000021 q 0,-1.24 -0.3,-2.10000001 -0.28,-0.86 -0.9,-1.28 -0.62,-0.44 -1.62,-0.44 -0.9,0 -1.52,0.36 -0.6000002,0.36 -0.9200002,1.2 -0.32,0.82000001 -0.32,2.20000001 V 1.2400002 q 0,1.3 0.3,2.14 0.3,0.82 0.9200002,1.22 0.62,0.38 1.6,0.38 z" /></g>
</g>
<g
   id="g20"
   transform="matrix(0.14,0,0,0.14,137.39598,100.9888)">
<path
   id="circle18"
   d="M 136.257,0 A 136.257,136.257 0 0 1 0,136.257 136.257,136.257 0 0 1 -136.257,0 136.257,136.257 0 0 1 0,-136.257 136.257,136.257 0 0 1 136.257,0 Z"
   style="opacity:1;fill:#b0bec5;fill-rule:evenodd;stroke:none;stroke-width:1;stroke-linecap:butt;stroke-linejoin:round;stroke-miterlimit:1.40999997;stroke-dasharray:none;stroke-dashoffset:0" />
</g>
<g
   id="g24"
   transform="matrix(0.14,0,0,0.14,137.39598,50.078798)">
<path
   id="circle22"
   d="M 136.257,0 A 136.257,136.257 0 0 1 0,136.257 136.257,136.257 0 0 1 -136.257,0 136.257,136.257 0 0 1 0,-136.257 136.257,136.257 0 0 1 136.257,0 Z"
   style="opacity:1;fill:#b0bec5;fill-rule:evenodd;stroke:none;stroke-width:1;stroke-linecap:butt;stroke-linejoin:round;stroke-miterlimit:1.40999997;stroke-dasharray:none;stroke-dashoffset:0" />
</g>
<g
   id="g28"
   transform="matrix(0.14,0,0,0.14,137.39598,153.2988)">
<path
   id="circle26"
   d="M 136.257,0 A 136.257,136.257 0 0 1 0,136.257 136.257,136.257 0 0 1 -136.257,0 136.257,136.257 0 0 1 0,-136.257 136.257,136.257 0 0 1 136.257,0 Z"
   style="opacity:1;fill:#b0bec5;fill-rule:evenodd;stroke:none;stroke-width:1;stroke-linecap:butt;stroke-linejoin:round;stroke-miterlimit:1.40999997;stroke-dasharray:none;stroke-dashoffset:0" />
</g>
<g
   id="g32"
   transform="matrix(0.14,0,0,0.14,44.07598,50.078798)">
<path
   id="circle30"
   d="M 136.257,0 A 136.257,136.257 0 0 1 0,136.257 136.257,136.257 0 0 1 -136.257,0 136.257,136.257 0 0 1 0,-136.257 136.257,136.257 0 0 1 136.257,0 Z"
   style="opacity:1;fill:#b0bec5;fill-rule:evenodd;stroke:none;stroke-width:1;stroke-linecap:butt;stroke-linejoin:round;stroke-miterlimit:1.40999997;stroke-dasharray:none;stroke-dashoffset:0" />
</g>
<g
   id="g36"
   transform="matrix(0.14,0,0,0.14,44.07598,100.9888)">
<path
   id="circle34"
   d="M 136.257,0 A 136.257,136.257 0 0 1 0,136.257 136.257,136.257 0 0 1 -136.257,0 136.257,136.257 0 0 1 0,-136.257 136.257,136.257 0 0 1 136.257,0 Z"
   style="opacity:1;fill:#b0bec5;fill-rule:evenodd;stroke:none;stroke-width:1;stroke-linecap:butt;stroke-linejoin:round;stroke-miterlimit:1.40999997;stroke-dasharray:none;stroke-dashoffset:0" />
</g>
<g
   id="g40"
   transform="matrix(0.14,0,0,0.14,44.07598,153.2988)">
<path
   id="circle38"
   d="M 136.257,0 A 136.257,136.257 0 0 1 0,136.257 136.257,136.257 0 0 1 -136.257,0 136.257,136.257 0 0 1 0,-136.257 136.257,136.257 0 0 1 136.257,0 Z"
   style="opacity:1;fill:#b0bec5;fill-rule:evenodd;stroke:none;stroke-width:1;stroke-linecap:butt;stroke-linejoin:round;stroke-miterlimit:1.40999997;stroke-dasharray:none;stroke-dashoffset:0" />
</g>
<g
   id="g44"
   transform="matrix(0.14,0,0,0.14,90.73598,100.9888)">
<path
   id="circle42"
   d="M 136.257,0 A 136.257,136.257 0 0 1 0,136.257 136.257,136.257 0 0 1 -136.257,0 136.257,136.257 0 0 1 0,-136.257 136.257,136.257 0 0 1 136.257,0 Z"
   style="opacity:1;fill:#b0bec5;fill-rule:evenodd;stroke:none;stroke-width:1;stroke-linecap:butt;stroke-linejoin:round;stroke-miterlimit:1.40999997;stroke-dasharray:none;stroke-dashoffset:0" />
</g>
<g
   id="g48"
   transform="matrix(0.14,0,0,0.14,90.73598,50.078798)">
<path
   id="circle46"
   d="M 136.257,0 A 136.257,136.257 0 0 1 0,136.257 136.257,136.257 0 0 1 -136.257,0 136.257,136.257 0 0 1 0,-136.257 136.257,136.257 0 0 1 136.257,0 Z"
   style="opacity:1;fill:#e0e0e0;fill-rule:evenodd;stroke:none;stroke-width:1;stroke-linecap:butt;stroke-linejoin:round;stroke-miterlimit:1.40999997;stroke-dasharray:none;stroke-dashoffset:0" />
</g>
<g
   id="g52"
   transform="matrix(0.14,0,0,0.14,90.73598,153.2988)">
<path
   id="circle50"
   d="M 136.257,0 A 136.257,136.257 0 0 1 0,136.257 136.257,136.257 0 0 1 -136.257,0 136.257,136.257 0 0 1 0,-136.257 136.257,136.257 0 0 1 136.257,0 Z"
   style="opacity:1;fill:#e0e0e0;fill-rule:evenodd;stroke:none;stroke-width:1;stroke-linecap:butt;stroke-linejoin:round;stroke-miterlimit:1.40999997;stroke-dasharray:none;stroke-dashoffset:0" />
</g>
</svg>